<?xml version="1.0" encoding="utf-8"?>
<!-- Generator: Adobe Illustrator 24.3.0, SVG Export Plug-In . SVG Version: 6.00 Build 0)  -->
<svg version="1.1" id="Layer_1" xmlns="http://www.w3.org/2000/svg" xmlns:xlink="http://www.w3.org/1999/xlink" x="0px" y="0px"
	 viewBox="0 0 547.4 553.4" style="enable-background:new 0 0 547.4 553.4;" xml:space="preserve">
<style type="text/css">
	.st0{fill-rule:evenodd;clip-rule:evenodd;}
</style>
<path fill="#ffacbd" class="st0" d="M222.8,5.9h102.5c11.9,0,21.8,9.9,21.8,22.5v178.5h178.5c11.9,0,21.8,9.9,21.8,21.8v102.5
	c0,11.9-9.9,21.8-21.8,21.8H347.1v178.5c0,11.9-9.9,21.8-21.8,21.8H222.8c-11.9,0-21.8-9.9-21.8-21.8V353.1H22.5
	C9.9,353.1,0,343.1,0,331.2V228.8c0-11.9,9.9-21.8,22.5-21.8H201V28.4C201,15.9,210.9,5.9,222.8,5.9z"/>
</svg>
