<?xml version="1.0" encoding="utf-8"?>
<!-- Generator: Adobe Illustrator 24.3.0, SVG Export Plug-In . SVG Version: 6.00 Build 0)  -->
<svg version="1.1" id="Layer_1" xmlns="http://www.w3.org/2000/svg" xmlns:xlink="http://www.w3.org/1999/xlink" x="0px" y="0px"
	 viewBox="0 0 409.4 409.4" style="enable-background:new 0 0 409.4 409.4;" xml:space="preserve">
<path d="M393.1,0H16.2C7.3,0,0,7.3,0,16.2v376.9c0,9,7.3,16.2,16.2,16.2h376.9c9,0,16.2-7.3,16.2-16.2V16.8
	C409.4,7.8,402.1,0,393.1,0L393.1,0z M32.5,33H173v343.8H32.5V33z M376.9,376.9H206.6V33h170.2V376.9z"/>
<path d="M240.2,218.4l66.6,66.6c3.4,3.4,7.3,5,11.8,5s8.4-1.7,11.8-5c6.7-6.7,6.7-16.8,0-23.5l-54.9-54.9l58.2-58.2
	c6.7-6.7,6.7-16.8,0-23.5c-6.7-6.7-16.8-6.7-23.5,0l-70,70c-3.4,3.4-5,7.3-5,11.8C235.2,211.1,236.9,215.6,240.2,218.4z"/>
<path d="M131.6,277.8H77.3c-2.2,0-4.5,1.7-4.5,4.5v54.3c0,2.2,1.7,4.5,4.5,4.5h54.3c2.2,0,4.5-1.7,4.5-4.5v-54.3
	C135.5,279.4,133.8,277.8,131.6,277.8z"/>
<path d="M131.6,173.6H77.3c-2.2,0-4.5,1.7-4.5,4.5v54.3c0,2.2,1.7,4.5,4.5,4.5h54.3c2.2,0,4.5-1.7,4.5-4.5v-54.3
	C135.5,175.3,133.8,173.6,131.6,173.6z"/>
<path d="M131.6,69.4H77.3c-2.2,0-4.5,1.7-4.5,4.5v54.3c0,2.2,1.7,4.5,4.5,4.5h54.3c2.2,0,4.5-1.7,4.5-4.5V73.9
	C135.5,71.7,133.8,69.4,131.6,69.4L131.6,69.4z"/>
</svg>
